<svg xmlns="http://www.w3.org/2000/svg" xmlns:svg="http://www.w3.org/2000/svg" id="svg8" width="1280" height="640" version="1.1" viewBox="0 0 338.667 169.333"><metadata id="metadata5"/><g id="layer1" transform="translate(-48.223877,-176.60753)"><path style="fill:#3176bb;fill-opacity:1;stroke:none;stroke-width:1;stroke-miterlimit:4;stroke-dasharray:none;stroke-dashoffset:0;stroke-opacity:1" id="path847" d="m 119.78831,214.89572 h 6.6974 13.39479 26.78957 l 13.39479,23.20045 13.39478,23.20046 -13.39478,23.20045 -6.6974,11.60023 -3.34869,5.80011 z m 20.17067,58.13707 0.39243,0.6797 0.39242,0.6797 0.39243,0.6797 6.2788,10.87522 12.55762,21.75042 h -6.6974 -13.39478 -13.39479 -6.6974 m -10.04609,-5.80011 -3.34869,-5.80011 -6.697387,-11.60023 -13.394786,-23.20045 13.394786,-23.20046 6.697387,-11.60022 3.34869,-5.80012 12.55762,21.75043 6.2788,10.87521 3.13941,5.43761 0.78485,1.3594 0.6222,1.07106"/><text xml:space="preserve" style="font-style:normal;font-variant:normal;font-weight:400;font-stretch:normal;font-size:55.18080902px;line-height:1.25;font-family:helvetica;-inkscape-font-specification:helvetica;text-align:center;letter-spacing:0;word-spacing:0;text-anchor:middle;fill:#3176bb;fill-opacity:1;stroke:none;stroke-width:1.3795203" id="text834" x="275.249" y="278.13"><tspan id="tspan832" x="275.249" y="278.13" style="font-style:normal;font-variant:normal;font-weight:700;font-stretch:normal;font-family:Dubai;-inkscape-font-specification:'Dubai Bold';fill:#3176bb;fill-opacity:1;stroke-width:1.3795203">Scalar</tspan></text></g></svg>